<?xml version="1.0" encoding="UTF-8" standalone="no"?>
<svg
   xmlns:dc="http://purl.org/dc/elements/1.1/"
   xmlns:cc="http://creativecommons.org/ns#"
   xmlns:rdf="http://www.w3.org/1999/02/22-rdf-syntax-ns#"
   xmlns:svg="http://www.w3.org/2000/svg"
   xmlns="http://www.w3.org/2000/svg"
   xmlns:sodipodi="http://sodipodi.sourceforge.net/DTD/sodipodi-0.dtd"
   xmlns:inkscape="http://www.inkscape.org/namespaces/inkscape"
   width="300"
   height="400"
   id="svg3051"
   version="1.1"
   inkscape:version="0.48.1 "
   sodipodi:docname="method-draw-image.svg">
  <metadata
     id="metadata3115">
    <rdf:RDF>
      <cc:Work
         rdf:about="">
        <dc:format>image/svg+xml</dc:format>
        <dc:type
           rdf:resource="http://purl.org/dc/dcmitype/StillImage" />
        <dc:title></dc:title>
      </cc:Work>
    </rdf:RDF>
  </metadata>
  <defs
     id="defs3113" />
  <sodipodi:namedview
     pagecolor="#ffffff"
     bordercolor="#666666"
     borderopacity="1"
     objecttolerance="10"
     gridtolerance="10"
     guidetolerance="10"
     inkscape:pageopacity="0"
     inkscape:pageshadow="2"
     inkscape:window-width="1366"
     inkscape:window-height="706"
     id="namedview3111"
     showgrid="false"
     inkscape:zoom="0.7275"
     inkscape:cx="290"
     inkscape:cy="200"
     inkscape:window-x="-8"
     inkscape:window-y="-8"
     inkscape:window-maximized="1"
     inkscape:current-layer="svg3051" />
  <!-- Created by Tharaka Romesh -->
  <g
     id="g3053">
    <title
       id="title3055">background</title>
  </g>
  <g
     id="g3057"
     transform="matrix(1.018845,0,0,1.0104807,-155.51935,-1.3983597)">
    <title
       id="title3059">Layer 1</title>
    <g
       stroke="null"
       id="svg_33">
      <g
         stroke="null"
         transform="matrix(6.7852134,0,0,7.0260767,-47.104393,-46.879999)"
         id="svg_5">
        <path
           stroke="null"
           id="svg_6"
           d="m 60.435759,6.995345 -29.022,0 c -0.808,0 -1.463,0.655 -1.463,1.926 l 0,53.074 c 0,0.345 0.655,1 1.463,1 l 40.074,0 c 0.808,0 1.463,-0.655 1.463,-1 l 0,-42.022 c 0,-0.696 -0.093,-0.92 -0.257,-1.085 l -11.636,-11.636 c -0.165,-0.164 -0.389,-0.257 -0.622,-0.257 z"
           inkscape:connector-curvature="0"
           style="fill:#e9e9e0" />
        <polygon
           stroke="null"
           id="svg_7"
           points="60.950762,18.995345 72.799754,18.995345 60.950762,7.1463455 "
           style="fill:#d9d7ca" />
        <path
           stroke="null"
           id="svg_8"
           d="m 71.487759,62.995345 -40.074,0 c -0.808,0 -1.463,-0.655 -1.463,-1.463 l 0,-15.537 43,0 0,15.537 c 0,0.808 -0.655,1.463 -1.463,1.463 z"
           inkscape:connector-curvature="0"
           style="fill:#9777a8" />
        <g
           stroke="null"
           id="svg_9">
          <path
             stroke="null"
             id="svg_10"
             d="m 42.829759,55.100345 2.557,4.895 -1.9,0 -1.6,-3.801 -0.137,0 -1.723,3.801 -1.9,0 2.557,-4.895 -2.721,-5.182 1.873,0 1.777,4.102 0.137,0 1.928,-4.102 1.873,0 -2.721,5.182 z"
             inkscape:connector-curvature="0"
             style="fill:#ffffff" />
          <path
             stroke="null"
             id="svg_11"
             d="m 55.448759,49.919345 1.668,0 0,10.076 -1.668,0 0,-6.932 -2.256,5.605 -1.449,0 -2.27,-5.605 0,6.932 -1.668,0 0,-10.076 1.668,0 2.994,6.891 2.981,-6.891 z"
             inkscape:connector-curvature="0"
             style="fill:#ffffff" />
          <path
             stroke="null"
             id="svg_12"
             d="m 61.313759,49.919345 0,8.832 4.635,0 0,1.244 -6.303,0 0,-10.076 1.668,0 z"
             inkscape:connector-curvature="0"
             style="fill:#ffffff" />
        </g>
        <path
           stroke="null"
           id="svg_13"
           d="m 38.950759,30.995345 c -0.256,0 -0.512,-0.098 -0.707,-0.293 -0.391,-0.391 -0.391,-1.023 0,-1.414 l 6,-6 c 0.391,-0.391 1.023,-0.391 1.414,0 0.391,0.391 0.391,1.023 0,1.414 l -6,6 c -0.195,0.195 -0.451,0.293 -0.707,0.293 z"
           inkscape:connector-curvature="0"
           style="fill:#9777a8" />
        <path
           stroke="null"
           id="svg_14"
           d="m 44.950759,36.995345 c -0.256,0 -0.512,-0.098 -0.707,-0.293 l -6,-6 c -0.391,-0.391 -0.391,-1.023 0,-1.414 0.391,-0.391 1.023,-0.391 1.414,0 l 6,6 c 0.391,0.391 0.391,1.023 0,1.414 -0.195,0.195 -0.451,0.293 -0.707,0.293 z"
           inkscape:connector-curvature="0"
           style="fill:#9777a8" />
        <path
           stroke="null"
           id="svg_15"
           d="m 56.950759,36.995345 c -0.256,0 -0.512,-0.098 -0.707,-0.293 -0.391,-0.391 -0.391,-1.023 0,-1.414 l 6,-6 c 0.391,-0.391 1.023,-0.391 1.414,0 0.391,0.391 0.391,1.023 0,1.414 l -6,6 c -0.195,0.195 -0.451,0.293 -0.707,0.293 z"
           inkscape:connector-curvature="0"
           style="fill:#9777a8" />
        <path
           stroke="null"
           id="svg_16"
           d="m 62.950759,30.995345 c -0.256,0 -0.512,-0.098 -0.707,-0.293 l -6,-6 c -0.391,-0.391 -0.391,-1.023 0,-1.414 0.391,-0.391 1.023,-0.391 1.414,0 l 6,6 c 0.391,0.391 0.391,1.023 0,1.414 -0.195,0.195 -0.451,0.293 -0.707,0.293 z"
           inkscape:connector-curvature="0"
           style="fill:#9777a8" />
        <path
           stroke="null"
           id="svg_17"
           d="m 47.950759,38.995345 c -0.11,0 -0.223,-0.019 -0.333,-0.058 -0.521,-0.184 -0.794,-0.755 -0.61,-1.276 l 6,-17 c 0.185,-0.521 0.753,-0.795 1.276,-0.61 0.521,0.184 0.794,0.755 0.61,1.276 l -6,17 c -0.145,0.412 -0.531,0.668 -0.943,0.668 z"
           inkscape:connector-curvature="0"
           style="fill:#9777a8" />
      </g>
      <g
         stroke="null"
         transform="matrix(6.7852134,0,0,7.0260767,-47.104393,-46.879999)"
         id="svg_18" />
      <g
         stroke="null"
         transform="matrix(6.7852134,0,0,7.0260767,-47.104393,-46.879999)"
         id="svg_19" />
      <g
         stroke="null"
         transform="matrix(6.7852134,0,0,7.0260767,-47.104393,-46.879999)"
         id="svg_20" />
      <g
         stroke="null"
         transform="matrix(6.7852134,0,0,7.0260767,-47.104393,-46.879999)"
         id="svg_21" />
      <g
         stroke="null"
         transform="matrix(6.7852134,0,0,7.0260767,-47.104393,-46.879999)"
         id="svg_22" />
      <g
         stroke="null"
         transform="matrix(6.7852134,0,0,7.0260767,-47.104393,-46.879999)"
         id="svg_23" />
      <g
         stroke="null"
         transform="matrix(6.7852134,0,0,7.0260767,-47.104393,-46.879999)"
         id="svg_24" />
      <g
         stroke="null"
         transform="matrix(6.7852134,0,0,7.0260767,-47.104393,-46.879999)"
         id="svg_25" />
      <g
         stroke="null"
         transform="matrix(6.7852134,0,0,7.0260767,-47.104393,-46.879999)"
         id="svg_26" />
      <g
         stroke="null"
         transform="matrix(6.7852134,0,0,7.0260767,-47.104393,-46.879999)"
         id="svg_27" />
      <g
         stroke="null"
         transform="matrix(6.7852134,0,0,7.0260767,-47.104393,-46.879999)"
         id="svg_28" />
      <g
         stroke="null"
         transform="matrix(6.7852134,0,0,7.0260767,-47.104393,-46.879999)"
         id="svg_29" />
      <g
         stroke="null"
         transform="matrix(6.7852134,0,0,7.0260767,-47.104393,-46.879999)"
         id="svg_30" />
      <g
         stroke="null"
         transform="matrix(6.7852134,0,0,7.0260767,-47.104393,-46.879999)"
         id="svg_31" />
      <g
         stroke="null"
         transform="matrix(6.7852134,0,0,7.0260767,-47.104393,-46.879999)"
         id="svg_32" />
    </g>
    <rect
       id="svg_34"
       height="99"
       width="216"
       y="287.5"
       x="192"
       stroke="null"
       style="fill:#9777a8;stroke-width:1.5" />
    <rect
       id="svg_35"
       height="165"
       width="169"
       y="91.5"
       x="202"
       stroke="null"
       style="fill:#e9e9e0;stroke-width:1.5" />
    <rect
       id="svg_36"
       height="114"
       width="101"
       y="138.5"
       x="328"
       stroke="null"
       style="fill:#e9e9e0;stroke-width:1.5" />
    <metadata
       transform="matrix(0.021947874126774458,0,0,0.021947874126774458,0,0) "
       id="metadata3093">Created by potrace 1.10, written by Peter Selinger 2001-2011</metadata>
    <g
       stroke="null"
       id="svg_48">
      <g
         id="svg_43"
         transform="matrix(0.02769399,0,0,-0.02673664,-3286.9233,-2052.4883)"
         style="fill:#e9e9e0">
        <path
           stroke="null"
           id="svg_44"
           d="m 126471.79,-87914.385 c -176,-19 -282,-54 -454,-150 -43,-24 -128,-99 -157,-140 -104,-144 -110,-349 -13,-446 39,-39 40,-41 23,-60 -9,-10 -23,-19 -30,-19 -24,0 -110,-95 -137,-153 -22,-47 -27,-71 -27,-137 0,-86 14,-128 62,-191 43,-57 36,-73 -18,-44 -18,9 -57,15 -105,15 -90,0 -151,-23 -202,-75 -32,-32 -87,-131 -87,-154 0,-15 40,-13 70,4 33,19 162,19 220,1 25,-8 65,-20 90,-27 84,-23 84,-24 30,-78 -58,-58 -76,-96 -101,-211 -23,-105 -23,-119 -3,-222 46,-227 192,-387 413,-452 112,-33 295,-17 422,37 42,19 139,103 139,122 0,7 6,18 14,25 8,6 16,21 18,33 5,36 30,25 61,-28 78,-135 210,-205 383,-205 246,0 460,148 551,380 60,153 55,351 -12,495 -34,73 -71,122 -149,196 l -58,56 46,23 c 92,44 135,127 135,265 1,101 -16,162 -64,233 -29,44 -127,122 -152,122 -22,0 -15,20 22,63 41,48 54,86 62,180 6,76 -9,159 -41,222 -22,42 -110,136 -161,171 -65,45 -201,100 -277,114 -27,5 -53,12 -59,15 -10,7 -298,35 -329,33 -8,0 -64,-6 -125,-13 z m 355,-305 c 226,-16 368,-63 435,-144 28,-35 35,-51 35,-87 0,-49 -4,-58 -40,-82 -37,-25 -197,-24 -273,3 -31,11 -61,20 -67,20 -25,0 -3,-50 63,-143 20,-28 16,-47 -10,-47 -37,0 -112,-47 -173,-109 -60,-61 -130,-172 -130,-206 0,-35 -21,-20 -45,32 -38,81 -105,173 -157,214 -53,44 -149,90 -200,97 -44,5 -48,19 -14,51 30,28 62,88 53,97 -4,5 -29,0 -56,-10 -67,-24 -230,-24 -267,0 -57,38 -56,129 4,188 37,38 148,96 181,96 11,0 32,5 48,11 62,24 394,35 613,19 z m -580,-628 c 62,-13 174,-98 214,-162 34,-53 62,-175 43,-187 -6,-4 -66,-7 -134,-8 -135,-2 -134,-3 -108,58 29,69 11,208 -34,262 -9,11 -23,29 -31,39 -14,18 -13,19 5,12 11,-5 31,-11 45,-14 z m 1008,-36 c 63,-4 116,-26 157,-66 34,-33 35,-37 35,-106 0,-67 -2,-74 -27,-93 -14,-12 -37,-24 -51,-28 -33,-8 -95,12 -132,44 -31,26 -31,27 -27,102 2,42 7,86 12,99 6,19 4,22 -20,22 -37,0 -86,-32 -121,-78 -27,-34 -29,-44 -29,-125 l 0,-88 -130,-2 c -130,-2 -130,-2 -133,22 -6,40 38,139 85,191 71,80 205,129 306,113 16,-3 50,-6 75,-7 z m -1197,-49 c 32,-27 59,-77 59,-110 0,-38 -27,-93 -56,-116 -19,-15 -41,-21 -79,-21 -46,0 -56,4 -87,36 -92,91 -39,235 87,234 37,-1 57,-7 76,-23 z m 609,-443 c 0,-18 33,-18 85,1 27,9 83,14 170,15 142,0 186,-10 280,-64 52,-29 155,-130 155,-150 0,-7 5,-17 11,-23 26,-26 49,-118 49,-193 0,-126 -43,-234 -117,-300 -59,-52 -93,-69 -173,-86 -136,-29 -254,-11 -357,56 -30,19 -29,28 8,107 38,80 53,167 44,253 -11,110 -66,160 -174,160 -50,0 -65,-4 -91,-26 -53,-45 -70,-91 -70,-193 0,-92 5,-111 56,-212 29,-56 29,-67 7,-86 -55,-43 -151,-72 -240,-73 -166,-1 -335,103 -398,245 -21,47 -25,73 -25,146 0,79 4,97 31,154 37,79 134,184 203,220 96,51 154,65 262,65 61,0 120,-6 150,-15 66,-20 91,-19 104,5 12,22 30,18 30,-6 z m 6,-390 c 7,-28 -2,-169 -12,-186 -21,-33 -40,70 -30,156 8,61 30,77 42,30 z"
           inkscape:connector-curvature="0" />
        <path
           stroke="null"
           id="svg_45"
           d="m 129521.79,-88668.385 c -145,-16 -253,-79 -310,-182 -27,-50 -29,-62 -29,-154 0,-87 3,-106 24,-145 33,-62 107,-133 162,-158 25,-11 48,-24 52,-30 3,-5 -11,-21 -32,-36 -37,-25 -81,-74 -114,-125 -23,-35 -58,-111 -58,-125 0,-6 -7,-29 -15,-51 -8,-24 -14,-78 -14,-135 -1,-177 62,-338 179,-461 47,-49 162,-121 245,-152 134,-50 352,-62 492,-28 133,34 201,65 271,125 51,44 72,50 72,22 0,-23 59,-95 92,-113 130,-69 314,-71 458,-4 89,41 181,126 244,224 40,63 106,201 106,223 0,8 4,23 9,33 28,52 51,218 51,369 0,203 -32,352 -109,505 -102,200 -235,321 -421,380 -52,17 -91,21 -200,21 -134,0 -136,0 -205,-35 -73,-35 -213,-161 -235,-210 -31,-69 -78,-144 -90,-144 -8,0 -19,14 -24,30 -33,108 -126,234 -216,291 -105,66 -206,83 -385,65 z m 277,-203 c 24,-12 68,-47 99,-78 45,-44 60,-69 78,-122 12,-37 21,-82 19,-99 l -3,-33 -117,1 c -150,1 -142,1 -131,16 16,21 33,92 33,142 0,56 -25,149 -45,165 -42,35 5,40 67,8 z m -222,-74 c 31,-31 34,-39 35,-91 0,-67 -20,-102 -73,-127 -41,-20 -65,-20 -104,0 -66,34 -98,101 -79,166 30,98 146,125 221,52 z m 1205,-41 c 22,-8 55,-22 74,-31 47,-23 155,-128 181,-177 11,-22 25,-47 29,-55 125,-234 135,-641 21,-885 -86,-182 -305,-266 -406,-154 -46,51 -62,151 -34,209 4,8 10,32 14,53 8,45 -3,48 -64,16 -57,-30 -65,-19 -51,63 14,81 13,145 -3,228 -16,84 -36,127 -78,167 -47,45 -102,65 -193,72 -90,7 -87,3 -67,91 14,62 29,103 71,189 86,177 205,246 406,233 33,-2 78,-10 100,-19 z m -795,-362 65,-18 0,-61 c 0,-71 -12,-88 -89,-127 -60,-30 -145,-108 -181,-165 -34,-53 -35,-128 -2,-157 34,-32 62,-43 105,-43 48,0 98,17 134,44 30,24 98,110 98,125 0,5 7,22 15,38 8,15 17,40 20,55 3,15 16,35 30,44 22,14 27,14 67,-4 55,-24 72,-45 88,-107 34,-124 -3,-277 -88,-360 -91,-88 -273,-125 -447,-91 -160,31 -276,117 -360,266 -16,29 -19,54 -19,140 1,98 3,110 34,174 97,203 320,307 530,247 z m 10,-348 c -1,-13 -38,-53 -49,-53 -17,0 -13,10 12,36 22,24 37,31 37,17 z"
           inkscape:connector-curvature="0" />
        <path
           stroke="null"
           id="svg_46"
           d="m 132486.79,-88668.385 c -82,-9 -157,-26 -208,-47 -18,-8 -37,-14 -43,-14 -19,0 -133,-60 -209,-111 -201,-132 -398,-422 -440,-644 -4,-22 -13,-60 -20,-85 -9,-31 -14,-114 -14,-270 -1,-231 9,-311 50,-408 8,-18 14,-39 14,-47 0,-12 17,-50 42,-95 4,-8 13,-25 18,-38 16,-38 100,-154 149,-206 89,-94 223,-183 366,-241 44,-18 129,-41 218,-59 107,-22 408,-22 514,0 116,23 265,72 285,92 7,7 17,12 24,12 16,0 162,110 189,141 58,68 99,131 134,203 85,176 60,316 -56,316 -51,0 -54,11 -20,79 128,254 154,574 66,821 -89,252 -293,455 -554,553 -127,47 -327,66 -505,48 z m 333,-137 c 122,-26 207,-65 302,-137 113,-86 205,-214 249,-347 57,-170 32,-440 -55,-600 -5,-8 -19,-35 -31,-60 -31,-61 -143,-172 -198,-197 -124,-55 -236,-56 -356,-1 -80,36 -157,120 -192,208 -32,80 -33,273 -3,303 6,6 11,18 11,27 1,24 97,138 138,163 89,55 229,73 314,41 55,-21 115,-50 153,-75 67,-42 79,-36 63,31 -18,75 -43,129 -82,176 -93,111 -209,122 -476,47 -30,-8 -70,-21 -88,-29 -20,-8 -67,-14 -120,-14 -96,0 -107,4 -178,72 l -41,40 -22,-35 c -41,-66 -21,-179 41,-233 37,-32 89,-53 151,-59 31,-4 57,-10 57,-15 0,-5 -16,-26 -36,-47 -129,-137 -150,-398 -48,-608 44,-90 159,-203 254,-247 183,-85 355,-91 535,-20 22,9 47,22 56,29 8,7 20,13 25,13 6,0 23,14 39,30 34,36 44,37 79,9 67,-53 1,-216 -126,-312 -46,-34 -100,-63 -193,-102 -75,-32 -248,-65 -341,-65 -68,0 -200,23 -261,44 -181,65 -361,232 -456,421 -83,168 -114,294 -124,516 -13,278 63,546 212,745 53,70 147,162 196,189 178,101 379,137 552,99 z"
           inkscape:connector-curvature="0" />
        <path
           stroke="null"
           id="svg_47"
           d="m 128306.79,-89208.385 c -73,-10 -132,-33 -228,-86 -44,-24 -145,-127 -187,-190 -59,-89 -105,-239 -105,-345 0,-52 22,-169 41,-220 18,-47 72,-133 112,-177 33,-36 140,-123 152,-123 4,0 24,-12 44,-27 52,-40 75,-52 144,-73 82,-26 209,-26 310,-1 68,18 91,27 137,53 8,4 25,13 38,18 28,12 161,143 188,185 88,139 114,222 114,370 0,110 -14,175 -54,265 -65,143 -214,270 -384,330 -63,22 -232,33 -322,21 z m 288,-140 c 29,-10 58,-23 65,-30 6,-6 16,-11 22,-11 13,0 91,-81 120,-125 172,-261 30,-621 -275,-695 -183,-45 -388,26 -478,165 -43,66 -53,87 -73,155 -23,78 -24,169 -4,236 8,27 15,58 15,69 1,11 11,33 25,49 l 23,29 8,-49 c 27,-183 256,-255 408,-129 51,42 76,95 76,160 0,78 -3,78 -115,10 -50,-30 -167,-36 -197,-8 -47,42 -5,142 73,174 63,26 235,26 307,0 z"
           inkscape:connector-curvature="0" />
      </g>
    </g>
    <metadata
       transform="matrix(0.021947874126774458,0,0,0.021947874126774458,0,0) "
       id="metadata3101">Created by potrace 1.10, written by Tharaka 2001-2011</metadata>
    <g
       stroke="null"
       transform="matrix(0.99999995,3.1065039e-4,-3.1065039e-4,0.99999995,0.05267524,-0.12984378)"
       id="svg_57"
       style="fill:#e9e9e0">
      <g
         id="svg_52"
         transform="matrix(0.04886138,0,0,-0.05096319,-5972.7309,-4136.9009)"
         style="fill:#9777a8">
        <path
           stroke="null"
           id="svg_53"
           d="m 127781.1,-82987.215 c -176,-19 -282,-54 -454,-150 -43,-24 -128,-99 -157,-140 -104,-144 -110,-349 -13,-446 39,-39 40,-41 23,-60 -9,-10 -23,-19 -30,-19 -24,0 -110,-95 -137,-153 -22,-47 -27,-71 -27,-137 0,-86 14,-128 62,-191 43,-57 36,-73 -18,-44 -18,9 -57,15 -105,15 -90,0 -151,-23 -202,-75 -32,-32 -87,-131 -87,-154 0,-15 40,-13 70,4 33,19 162,19 220,1 25,-8 65,-20 90,-27 84,-23 84,-24 30,-78 -58,-58 -76,-96 -101,-211 -23,-105 -23,-119 -3,-222 46,-227 192,-387 413,-452 112,-33 295,-17 422,37 42,19 139,103 139,122 0,7 6,18 14,25 8,6 16,21 18,33 5,36 30,25 61,-28 78,-135 210,-205 383,-205 246,0 460,148 551,380 60,153 55,351 -12,495 -34,73 -71,122 -149,196 l -58,56 46,23 c 92,44 135,127 135,265 1,101 -16,162 -64,233 -29,44 -127,122 -152,122 -22,0 -15,20 22,63 41,48 54,86 62,180 6,76 -9,159 -41,222 -22,42 -110,136 -161,171 -65,45 -201,100 -277,114 -27,5 -53,12 -59,15 -10,7 -298,35 -329,33 -8,0 -64,-6 -125,-13 z m 355,-305 c 226,-16 368,-63 435,-144 28,-35 35,-51 35,-87 0,-49 -4,-58 -40,-82 -37,-25 -197,-24 -273,3 -31,11 -61,20 -67,20 -25,0 -3,-50 63,-143 20,-28 16,-47 -10,-47 -37,0 -112,-47 -173,-109 -60,-61 -130,-172 -130,-206 0,-35 -21,-20 -45,32 -38,81 -105,173 -157,214 -53,44 -149,90 -200,97 -44,5 -48,19 -14,51 30,28 62,88 53,97 -4,5 -29,0 -56,-10 -67,-24 -230,-24 -267,0 -57,38 -56,129 4,188 37,38 148,96 181,96 11,0 32,5 48,11 62,24 394,35 613,19 z m -580,-628 c 62,-13 174,-98 214,-162 34,-53 62,-175 43,-187 -6,-4 -66,-7 -134,-8 -135,-2 -134,-3 -108,58 29,69 11,208 -34,262 -9,11 -23,29 -31,39 -14,18 -13,19 5,12 11,-5 31,-11 45,-14 z m 1008,-36 c 63,-4 116,-26 157,-66 34,-33 35,-37 35,-106 0,-67 -2,-74 -27,-93 -14,-12 -37,-24 -51,-28 -33,-8 -95,12 -132,44 -31,26 -31,27 -27,102 2,42 7,86 12,99 6,19 4,22 -20,22 -37,0 -86,-32 -121,-78 -27,-34 -29,-44 -29,-125 l 0,-88 -130,-2 c -130,-2 -130,-2 -133,22 -6,40 38,139 85,191 71,80 205,129 306,113 16,-3 50,-6 75,-7 z m -1197,-49 c 32,-27 59,-77 59,-110 0,-38 -27,-93 -56,-116 -19,-15 -41,-21 -79,-21 -46,0 -56,4 -87,36 -92,91 -39,235 87,234 37,-1 57,-7 76,-23 z m 609,-443 c 0,-18 33,-18 85,1 27,9 83,14 170,15 142,0 186,-10 280,-64 52,-29 155,-130 155,-150 0,-7 5,-17 11,-23 26,-26 49,-118 49,-193 0,-126 -43,-234 -117,-300 -59,-52 -93,-69 -173,-86 -136,-29 -254,-11 -357,56 -30,19 -29,28 8,107 38,80 53,167 44,253 -11,110 -66,160 -174,160 -50,0 -65,-4 -91,-26 -53,-45 -70,-91 -70,-193 0,-92 5,-111 56,-212 29,-56 29,-67 7,-86 -55,-43 -151,-72 -240,-73 -166,-1 -335,103 -398,245 -21,47 -25,73 -25,146 0,79 4,97 31,154 37,79 134,184 203,220 96,51 154,65 262,65 61,0 120,-6 150,-15 66,-20 91,-19 104,5 12,22 30,18 30,-6 z m 6,-390 c 7,-28 -2,-169 -12,-186 -21,-33 -40,70 -30,156 8,61 30,77 42,30 z"
           inkscape:connector-curvature="0" />
        <path
           stroke="null"
           id="svg_56"
           d="m 129616.1,-84281.215 c -73,-10 -132,-33 -228,-86 -44,-24 -145,-127 -187,-190 -59,-89 -105,-239 -105,-345 0,-52 22,-169 41,-220 18,-47 72,-133 112,-177 33,-36 140,-123 152,-123 4,0 24,-12 44,-27 52,-40 75,-52 144,-73 82,-26 209,-26 310,-1 68,18 91,27 137,53 8,4 25,13 38,18 28,12 161,143 188,185 88,139 114,222 114,370 0,110 -14,175 -54,265 -65,143 -214,270 -384,330 -63,22 -232,33 -322,21 z m 288,-140 c 29,-10 58,-23 65,-30 6,-6 16,-11 22,-11 13,0 91,-81 120,-125 172,-261 30,-621 -275,-695 -183,-45 -388,26 -478,165 -43,66 -53,87 -73,155 -23,78 -24,169 -4,236 8,27 15,58 15,69 1,11 11,33 25,49 l 23,29 8,-49 c 27,-183 256,-255 408,-129 51,42 76,95 76,160 0,78 -3,78 -115,10 -50,-30 -167,-36 -197,-8 -47,42 -5,142 73,174 63,26 235,26 307,0 z"
           inkscape:connector-curvature="0" />
      </g>
    </g>
    <rect
       id="svg_58"
       height="155"
       width="35"
       y="109.5"
       x="408"
       stroke="null"
       style="fill:#e9e9e0;stroke-width:1.5" />
    <rect
       id="svg_59"
       height="45"
       width="29"
       y="93.5"
       x="395"
       stroke="null"
       style="fill:#e9e9e0;stroke-width:1.5" />
    <rect
       id="svg_60"
       height="1"
       width="1"
       y="144.5"
       x="375"
       stroke="null"
       style="fill:#e9e9e0;stroke-width:1.5" />
    <rect
       stroke="null"
       id="svg_61"
       height="130"
       width="44.000004"
       y="132.5"
       x="402"
       style="fill:#e9e9e0;stroke-width:1.5" />
  </g>
</svg>
